<?xml version="1.0" encoding="utf-8"?>
<!-- Generator: Adobe Illustrator 19.0.0, SVG Export Plug-In . SVG Version: 6.00 Build 0)  -->
<svg version="1.1" id="layer" xmlns="http://www.w3.org/2000/svg" xmlns:xlink="http://www.w3.org/1999/xlink" x="0px" y="0px"
	 viewBox="-130 170 600 200" style="enable-background:new -153 -46 652 652;" xml:space="preserve">
<style type="text/css">
	.st0{fill:#85EA2D;}
	.st1{fill:#173647;}
</style>
<path class="st0" d="M-57.7,333.8c-38.8,0-70.4-31.6-70.4-70.4s31.6-70.4,70.4-70.4s70.4,31.6,70.4,70.4S-18.9,333.8-57.7,333.8z"/>
<path class="st1" d="M-57.7,196.6c36.9,0,66.9,29.9,66.9,66.9c0,36.9-29.9,66.9-66.9,66.9c-36.9,0-66.9-29.9-66.9-66.9
	S-94.6,196.6-57.7,196.6 M-57.7,189.5c-40.8,0-73.9,33.2-73.9,73.9s33.2,73.9,73.9,73.9s73.9-33.2,73.9-73.9S-17,189.5-57.7,189.5
	L-57.7,189.5z"/>
<path class="st1" d="M-85.1,239.6c-0.2,2.5,0.1,5.1-0.1,7.7c-0.2,2.6-0.5,5.1-1,7.6c-0.7,3.6-3,6.3-6.1,8.6c6,3.9,6.7,10,7.1,16.2
	c0.2,3.3,0.1,6.7,0.5,10c0.3,2.6,1.2,3.2,3.9,3.3c1.1,0,2.2,0,3.4,0v7.9c-7.8,1.3-14.3-0.9-15.9-7.5c-0.5-2.4-0.9-4.9-1-7.4
	c-0.2-2.6,0.1-5.3-0.1-7.9c-0.6-7.2-1.5-9.7-8.4-10v-9c0.5-0.1,1-0.2,1.5-0.3c3.8-0.2,5.4-1.4,6.3-5.1c0.4-2.1,0.6-4.2,0.7-6.4
	c0.3-4.1,0.2-8.3,0.9-12.4c1-5.9,4.6-8.7,10.7-9.1c1.7-0.1,3.4,0,5.4,0v8.1c-0.8,0.1-1.5,0.2-2.3,0.2
	C-84.5,233.8-84.7,235.5-85.1,239.6z M-75.6,258.3h-0.1c-2.8-0.1-5.3,2.1-5.4,4.9c-0.1,2.9,2.1,5.3,4.9,5.5h0.3
	c2.8,0.2,5.2-2,5.4-4.8v-0.3C-70.5,260.7-72.8,258.3-75.6,258.3z M-57.8,258.3c-2.8-0.1-5.1,2.1-5.1,4.8c0,0.2,0,0.3,0,0.5
	c0,3.1,2.1,5.1,5.3,5.1c3.1,0,5.1-2,5.1-5.3C-52.6,260.3-54.7,258.2-57.8,258.3z M-39.6,258.3c-2.9-0.1-5.3,2.2-5.4,5.1
	c0,2.9,2.3,5.2,5.2,5.2h0.1c2.6,0.5,5.3-2.1,5.4-5.1C-34.1,260.7-36.7,258.3-39.6,258.3z M-14.5,258.7c-3.3-0.1-4.9-1.2-5.8-4.4
	c-0.5-2-0.8-4.1-0.9-6.1c-0.2-3.8-0.2-7.6-0.5-11.5c-0.6-9-7.1-12.2-16.6-10.6v7.8c1.5,0,2.7,0,3.8,0c2,0,3.6,0.8,3.8,3
	c0.2,2,0.2,4.1,0.4,6.2c0.4,4.1,0.6,8.3,1.3,12.4c0.6,3.4,2.9,5.9,5.8,7.9c-5,3.4-6.5,8.2-6.8,13.6c-0.1,3.7-0.2,7.5-0.4,11.2
	c-0.2,3.4-1.4,4.5-4.8,4.6c-1,0-1.9,0.1-3,0.2v8c2,0,3.9,0.1,5.7,0c5.7-0.3,9.2-3.1,10.3-8.7c0.5-3.1,0.8-6.2,0.9-9.3
	c0.2-2.8,0.2-5.7,0.5-8.5c0.4-4.4,2.4-6.2,6.8-6.5c0.4-0.1,0.8-0.1,1.2-0.3v-9C-13.5,258.8-14,258.7-14.5,258.7z"/>
<path class="st1" d="M398.2,293.9h-1v-5.4h-1.9v-0.9h4.8v0.9h-1.9L398.2,293.9L398.2,293.9z M404.2,293.9l-1.8-5.3h0
	c0,0.8,0.1,1.5,0.1,2.2v3.1h-0.9v-6.3h1.5l1.8,5h0l1.8-5h1.5v6.3h-1v-3.1c0-0.3,0-0.7,0-1.2c0-0.5,0-0.8,0-0.9h0l-1.9,5.3
	C405.1,293.9,404.2,293.9,404.2,293.9z M92.9,275.4c0,6-2.2,10.6-6.5,13.9c-4.3,3.3-10.2,5-17.6,5c-8,0-14.2-1-18.5-3.1v-7.6
	c2.8,1.2,5.8,2.1,9.1,2.8c3.3,0.7,6.5,1,9.7,1c5.2,0,9.2-1,11.8-3c2.7-2,4-4.8,4-8.3c0-2.3-0.5-4.3-1.4-5.8
	c-0.9-1.5-2.5-2.9-4.7-4.1c-2.2-1.3-5.6-2.7-10.1-4.3c-6.3-2.2-10.8-4.9-13.5-8c-2.7-3.1-4-7.1-4-12.1c0-5.2,2-9.4,5.9-12.4
	s9.1-4.6,15.5-4.6c6.7,0,12.9,1.2,18.5,3.7l-2.5,6.8c-5.6-2.3-11-3.5-16.3-3.5c-4.2,0-7.4,0.9-9.8,2.7c-2.3,1.8-3.5,4.3-3.5,7.4
	c0,2.3,0.4,4.3,1.3,5.8c0.9,1.5,2.3,2.9,4.4,4.1c2.1,1.2,5.2,2.6,9.4,4.1c7.1,2.5,12,5.2,14.6,8.1C91.5,267,92.9,270.8,92.9,275.4z
	 M141.7,293.4l-9.3-29.7c-0.6-1.8-1.7-6-3.3-12.4h-0.4c-1.2,5.4-2.3,9.6-3.2,12.5l-9.6,29.6H107l-13.8-50.7h8
	c3.3,12.7,5.8,22.4,7.5,29.1c1.7,6.7,2.7,11.1,2.9,13.5h0.4c0.3-1.8,0.9-4,1.6-6.8c0.8-2.8,1.4-5,2-6.6l9.3-29.1h8.3l9.1,29.1
	c1.7,5.3,2.9,9.8,3.5,13.4h0.4c0.1-1.1,0.5-2.8,1-5.1s3.8-14.8,9.6-37.3h8l-14,50.7L141.7,293.4L141.7,293.4z M200.5,293.4l-1.5-7.2
	h-0.4c-2.5,3.2-5,5.3-7.6,6.5c-2.5,1.1-5.7,1.7-9.4,1.7c-5,0-9-1.3-11.8-3.9c-2.9-2.6-4.3-6.3-4.3-11.1c0-10.2,8.2-15.6,24.6-16.1
	l8.6-0.3v-3.1c0-4-0.9-6.9-2.6-8.8c-1.7-1.9-4.4-2.8-8.2-2.8c-4.2,0-9,1.3-14.3,3.9l-2.4-5.9c2.5-1.4,5.2-2.4,8.2-3.2
	c3-0.8,6-1.2,8.9-1.2c6,0,10.5,1.3,13.4,4c2.9,2.7,4.4,7,4.4,12.9v34.6L200.5,293.4L200.5,293.4z M183.1,288c4.8,0,8.5-1.3,11.3-3.9
	c2.7-2.6,4.1-6.3,4.1-11v-4.6l-7.7,0.3c-6.1,0.2-10.5,1.2-13.2,2.8c-2.7,1.7-4,4.3-4,7.8c0,2.8,0.8,4.9,2.5,6.3
	C177.8,287.3,180.1,288,183.1,288z M258.8,242.7v4.9l-9.4,1.1c0.9,1.1,1.6,2.5,2.3,4.2c0.7,1.7,1,3.7,1,5.9c0,5-1.7,8.9-5.1,11.9
	c-3.4,3-8,4.4-14,4.4c-1.5,0-2.9-0.1-4.3-0.4c-3.3,1.7-4.9,3.9-4.9,6.5c0,1.4,0.6,2.4,1.7,3.1c1.1,0.7,3.1,1,5.9,1h9
	c5.5,0,9.7,1.2,12.6,3.5c2.9,2.3,4.4,5.7,4.4,10.1c0,5.6-2.3,9.9-6.8,12.8c-4.5,2.9-11.1,4.4-19.7,4.4c-6.6,0-11.7-1.2-15.3-3.7
	c-3.6-2.5-5.4-6-5.4-10.5c0-3.1,1-5.8,3-8c2-2.2,4.7-3.8,8.3-4.6c-1.3-0.6-2.4-1.5-3.3-2.7c-0.9-1.2-1.3-2.7-1.3-4.3
	c0-1.8,0.5-3.5,1.5-4.9c1-1.4,2.5-2.7,4.7-4c-2.6-1.1-4.8-2.9-6.4-5.5c-1.7-2.6-2.5-5.6-2.5-8.9c0-5.6,1.7-9.8,5-12.8
	c3.3-3,8-4.5,14.2-4.5c2.7,0,5,0.3,7.2,0.9L258.8,242.7L258.8,242.7z M218.4,301.9c0,2.7,1.2,4.8,3.5,6.2c2.3,1.4,5.6,2.1,9.9,2.1
	c6.4,0,11.2-1,14.3-2.9c3.1-1.9,4.6-4.5,4.6-7.8c0-2.7-0.8-4.6-2.5-5.7c-1.7-1.1-4.9-1.6-9.6-1.6h-9.2c-3.5,0-6.2,0.8-8.1,2.5
	C219.4,296.4,218.4,298.8,218.4,301.9z M222.6,258.9c0,3.5,1,6.2,3,8c2,1.8,4.8,2.7,8.4,2.7c7.5,0,11.2-3.6,11.2-10.9
	c0-7.6-3.8-11.4-11.4-11.4c-3.6,0-6.4,1-8.3,2.9C223.5,252.2,222.6,255.1,222.6,258.9z M309.8,242.7v4.9l-9.4,1.1
	c0.9,1.1,1.6,2.5,2.3,4.2c0.7,1.7,1,3.7,1,5.9c0,5-1.7,8.9-5.1,11.9c-3.4,3-8,4.4-14,4.4c-1.5,0-2.9-0.1-4.3-0.4
	c-3.3,1.7-4.9,3.9-4.9,6.5c0,1.4,0.6,2.4,1.7,3.1c1.1,0.7,3.1,1,5.9,1h9c5.5,0,9.7,1.2,12.6,3.5c2.9,2.3,4.4,5.7,4.4,10.1
	c0,5.6-2.3,9.9-6.8,12.8c-4.5,2.9-11.1,4.4-19.7,4.4c-6.6,0-11.7-1.2-15.3-3.7c-3.6-2.5-5.4-6-5.4-10.5c0-3.1,1-5.8,3-8
	c2-2.2,4.7-3.8,8.3-4.6c-1.3-0.6-2.4-1.5-3.3-2.7c-0.9-1.2-1.3-2.7-1.3-4.3c0-1.8,0.5-3.5,1.5-4.9c1-1.4,2.5-2.7,4.7-4
	c-2.6-1.1-4.8-2.9-6.4-5.5c-1.7-2.6-2.5-5.6-2.5-8.9c0-5.6,1.7-9.8,5-12.8c3.3-3,8-4.5,14.2-4.5c2.7,0,5,0.3,7.2,0.9L309.8,242.7
	L309.8,242.7z M269.4,301.9c0,2.7,1.2,4.8,3.5,6.2c2.3,1.4,5.6,2.1,9.9,2.1c6.4,0,11.2-1,14.3-2.9c3.1-1.9,4.6-4.5,4.6-7.8
	c0-2.7-0.8-4.6-2.5-5.7c-1.7-1.1-4.9-1.6-9.6-1.6h-9.2c-3.5,0-6.2,0.8-8.1,2.5C270.4,296.4,269.4,298.8,269.4,301.9z M273.6,258.9
	c0,3.5,1,6.2,3,8c2,1.8,4.8,2.7,8.4,2.7c7.5,0,11.2-3.6,11.2-10.9c0-7.6-3.8-11.4-11.4-11.4c-3.6,0-6.4,1-8.3,2.9
	C274.5,252.2,273.6,255.1,273.6,258.9z M335.9,294.3c-7.5,0-13.4-2.3-17.7-6.8c-4.3-4.6-6.5-10.9-6.5-19c0-8.2,2-14.7,6-19.5
	s9.4-7.2,16.2-7.2c6.4,0,11.4,2.1,15.1,6.3s5.6,9.7,5.6,16.5v4.9h-34.9c0.2,6,1.7,10.5,4.5,13.6c2.9,3.1,6.9,4.6,12,4.6
	c5.5,0,10.9-1.1,16.2-3.4v6.8c-2.7,1.2-5.3,2-7.7,2.5C342.2,294.1,339.3,294.3,335.9,294.3z M333.8,248.2c-4.1,0-7.3,1.3-9.7,4
	c-2.4,2.7-3.8,6.3-4.3,11h26.5c0-4.8-1.1-8.5-3.2-11.1C340.9,249.5,337.8,248.2,333.8,248.2z M386.3,241.8c2.2,0,4.3,0.2,6.1,0.6
	l-1.1,7.1c-2.1-0.5-3.9-0.7-5.6-0.7c-4.1,0-7.6,1.7-10.5,5c-2.9,3.3-4.4,7.5-4.4,12.4v27.2h-7.7v-50.7h6.3l0.9,9.4h0.4
	c1.9-3.3,4.1-5.8,6.8-7.6C380.2,242.7,383.1,241.8,386.3,241.8z M245.9,332.3c0,0-5.1-0.6-7.2-0.6c-3,0-4.6,1.1-4.6,3.2
	c0,2.3,1.3,2.9,5.5,4c5.2,1.4,7.1,2.8,7.1,7.1c0,5.4-3.4,7.8-8.3,7.8c-3.2,0-8.1-1-8.1-1l0.4-3.2c0,0,4.9,0.7,7.5,0.7
	c3.1,0,4.5-1.4,4.5-4c0-2.1-1.1-2.8-4.9-3.7c-5.4-1.4-7.7-3-7.7-7.3c0-5,3.3-7.1,8.3-7.1c3.1,0,7.9,0.9,7.9,0.9L245.9,332.3z
	 M256.4,328.6h7l5.5,19.4l5.5-19.4h7v24.8h-4.1V332h-0.2l-6.2,20.4h-4.2l-6.2-20.4h-0.2v21.4h-4V328.6z M343.7,328.6h18.1v3.6h-7
	v21.2h-4.1v-21.2h-7.1L343.7,328.6L343.7,328.6z M379.3,328.6c4.9,0,7.6,1.8,7.6,6.4c0,3-0.9,4.5-2.9,5.6c2.1,0.8,3.5,2.4,3.5,5.8
	c0,5.1-3.1,7-7.9,7h-9.7v-24.8H379.3z M373.9,332.1v7.1h5.3c2.5,0,3.5-1.2,3.5-3.7c0-2.4-1.2-3.4-3.7-3.4H373.9z M373.9,342.6v7.3
	h5.5c2.5,0,4-0.8,4-3.8c0-2.8-2.1-3.6-4.1-3.6H373.9z M397.4,328.6H413v3.5h-11.6v7h9.4v3.4h-9.4v7.3H413v3.5h-15.6V328.6z
	 M427.4,328.6h8l6.2,24.8h-4.1l-1.8-7.3h-8.5l-1.8,7.3h-4L427.4,328.6z M428,342.6h7l-2.6-10.6h-1.8L428,342.6z M454.6,346.1v7.3h-4
	v-24.8h9.4c5.5,0,8.4,3.1,8.4,8.6c0,3.5-1.4,6.7-4.1,7.9l4.1,8.3H464l-3.6-7.3L454.6,346.1L454.6,346.1z M459.9,332.1h-5.4v10.5h5.5
	c3,0,4.2-2.7,4.2-5.3C464.2,334.5,462.8,332.1,459.9,332.1z M296.4,328.6h8l6.2,24.8h-4.1l-1.8-7.3h-8.5l-1.8,7.3h-4L296.4,328.6z
	 M296.9,342.6h7l-2.6-10.6h-1.8L296.9,342.6z M323.5,346.1v7.3h-4v-24.8h9.4c5.5,0,8.4,3.1,8.4,8.6c0,3.5-1.4,6.7-4.1,7.9l4.1,8.3
	h-4.4l-3.6-7.3L323.5,346.1L323.5,346.1z M328.9,332.1h-5.4v10.5h5.5c3,0,4.2-2.7,4.2-5.3C333.1,334.5,331.8,332.1,328.9,332.1z
	 M60.9,348.6c0,1.6-0.6,2.9-1.7,3.7s-2.7,1.3-4.7,1.3c-2.2,0-3.8-0.3-5-0.8v-2c0.7,0.3,1.6,0.6,2.4,0.7c0.9,0.2,1.8,0.3,2.6,0.3
	c1.4,0,2.5-0.3,3.2-0.8c0.7-0.5,1.1-1.3,1.1-2.2c0-0.6-0.1-1.1-0.4-1.6c-0.3-0.4-0.7-0.8-1.3-1.1s-1.5-0.7-2.7-1.2
	c-1.7-0.6-2.9-1.3-3.6-2.2c-0.7-0.8-1.1-1.9-1.1-3.2c0-1.4,0.5-2.5,1.6-3.3s2.4-1.2,4.2-1.2c1.8,0,3.5,0.3,5,1l-0.7,1.8
	c-1.5-0.6-3-0.9-4.4-0.9c-1.1,0-2,0.2-2.6,0.7c-0.6,0.5-0.9,1.1-0.9,2c0,0.6,0.1,1.1,0.3,1.6c0.2,0.4,0.6,0.8,1.2,1.1
	c0.6,0.3,1.4,0.7,2.5,1.1c1.9,0.7,3.2,1.4,3.9,2.2C60.5,346.3,60.9,347.3,60.9,348.6z M66.5,339.8v8.9c0,1.1,0.3,1.9,0.8,2.5
	c0.5,0.5,1.3,0.8,2.4,0.8c1.4,0,2.5-0.4,3.1-1.2c0.7-0.8,1-2.1,1-3.8v-7.2h2.1v13.6h-1.7l-0.3-1.8h-0.1c-0.4,0.7-1,1.2-1.8,1.5
	c-0.8,0.4-1.6,0.5-2.6,0.5c-1.7,0-2.9-0.4-3.7-1.2c-0.8-0.8-1.2-2.1-1.2-3.8v-8.9L66.5,339.8L66.5,339.8z M86.9,353.7
	c-0.9,0-1.7-0.2-2.4-0.5c-0.7-0.3-1.4-0.8-1.8-1.5h-0.1c0.1,0.8,0.1,1.6,0.1,2.3v5.6h-2.1v-19.8h1.7l0.3,1.9h0.1
	c0.5-0.7,1.1-1.3,1.9-1.6c0.7-0.3,1.5-0.5,2.4-0.5c1.8,0,3.2,0.6,4.2,1.9c1,1.2,1.5,3,1.5,5.2c0,2.2-0.5,4-1.5,5.2
	C90,353,88.6,353.7,86.9,353.7z M86.6,341.3c-1.4,0-2.4,0.4-3,1.2c-0.6,0.8-0.9,2-1,3.7v0.5c0,1.9,0.3,3.3,1,4.1
	c0.6,0.8,1.7,1.2,3.1,1.2c1.2,0,2.1-0.5,2.8-1.4c0.7-1,1-2.3,1-3.9c0-1.7-0.3-3-1-3.9C88.7,341.7,87.8,341.3,86.6,341.3z
	 M102.9,353.7c-0.9,0-1.7-0.2-2.4-0.5c-0.7-0.3-1.4-0.8-1.8-1.5h-0.1c0.1,0.8,0.1,1.6,0.1,2.3v5.6h-2.1v-19.8h1.7l0.3,1.9h0.1
	c0.5-0.7,1.1-1.3,1.9-1.6c0.7-0.3,1.5-0.5,2.4-0.5c1.8,0,3.2,0.6,4.2,1.9c1,1.2,1.5,3,1.5,5.2c0,2.2-0.5,4-1.5,5.2
	C106,353,104.7,353.7,102.9,353.7z M102.6,341.3c-1.4,0-2.4,0.4-3,1.2c-0.6,0.8-0.9,2-1,3.7v0.5c0,1.9,0.3,3.3,1,4.1
	c0.6,0.8,1.7,1.2,3.1,1.2c1.2,0,2.1-0.5,2.8-1.4c0.7-1,1-2.3,1-3.9c0-1.7-0.3-3-1-3.9C104.7,341.7,103.8,341.3,102.6,341.3z
	 M124.4,346.6c0,2.2-0.6,4-1.7,5.2c-1.1,1.2-2.7,1.9-4.6,1.9c-1.2,0-2.3-0.3-3.3-0.9c-0.9-0.6-1.7-1.4-2.2-2.5
	c-0.5-1.1-0.8-2.3-0.8-3.8c0-2.2,0.6-4,1.7-5.2s2.7-1.9,4.6-1.9c1.9,0,3.4,0.6,4.6,1.9C123.8,342.7,124.4,344.4,124.4,346.6z
	 M114,346.6c0,1.7,0.3,3.1,1,4c0.7,0.9,1.7,1.4,3.1,1.4c1.4,0,2.4-0.5,3.1-1.4c0.7-0.9,1.1-2.2,1.1-4c0-1.7-0.4-3.1-1.1-4
	c-0.7-0.9-1.7-1.4-3.1-1.4c-1.4,0-2.4,0.4-3.1,1.3C114.4,343.5,114,344.8,114,346.6z M134.6,339.5c0.6,0,1.1,0,1.6,0.1l-0.3,1.9
	c-0.6-0.1-1.1-0.2-1.5-0.2c-1.1,0-2,0.4-2.8,1.3c-0.8,0.9-1.2,2-1.2,3.3v7.3h-2.1v-13.6h1.7l0.2,2.5h0.1c0.5-0.9,1.1-1.6,1.8-2.1
	C133,339.7,133.8,339.5,134.6,339.5z M144.7,351.9c0.4,0,0.7,0,1.1-0.1c0.3-0.1,0.6-0.1,0.8-0.2v1.6c-0.2,0.1-0.6,0.2-1,0.3
	c-0.4,0.1-0.8,0.1-1.2,0.1c-2.6,0-4-1.4-4-4.2v-8.1h-2v-1l2-0.9l0.9-2.9h1.2v3.2h4v1.6h-4v8c0,0.8,0.2,1.5,0.6,1.9
	C143.5,351.7,144,351.9,144.7,351.9z M155.3,353.7c-2,0-3.6-0.6-4.8-1.8c-1.2-1.2-1.7-2.9-1.7-5.1c0-2.2,0.5-3.9,1.6-5.2
	c1.1-1.3,2.5-1.9,4.4-1.9c1.7,0,3.1,0.6,4.1,1.7c1,1.1,1.5,2.6,1.5,4.5v1.3h-9.4c0,1.6,0.4,2.8,1.2,3.6c0.8,0.8,1.8,1.2,3.2,1.2
	c1.5,0,2.9-0.3,4.4-0.9v1.8c-0.7,0.3-1.4,0.5-2.1,0.7C157,353.6,156.2,353.7,155.3,353.7z M154.8,341.2c-1.1,0-2,0.4-2.6,1.1
	c-0.7,0.7-1,1.7-1.2,3h7.1c0-1.3-0.3-2.3-0.9-3C156.7,341.6,155.8,341.2,154.8,341.2z M173.7,351.6h-0.1c-1,1.4-2.4,2.1-4.3,2.1
	c-1.8,0-3.2-0.6-4.2-1.8c-1-1.2-1.5-3-1.5-5.2s0.5-4,1.5-5.2c1-1.2,2.4-1.9,4.2-1.9c1.9,0,3.3,0.7,4.3,2h0.2l-0.1-1l-0.1-1V334h2.1
	v19.4h-1.7L173.7,351.6z M169.5,351.9c1.4,0,2.4-0.4,3.1-1.2c0.6-0.8,1-2,1-3.7v-0.4c0-1.9-0.3-3.3-1-4.1c-0.6-0.8-1.7-1.2-3.1-1.2
	c-1.2,0-2.1,0.5-2.8,1.4c-0.6,0.9-1,2.3-1,4c0,1.7,0.3,3.1,1,3.9C167.3,351.5,168.3,351.9,169.5,351.9z M194,339.5
	c1.8,0,3.2,0.6,4.2,1.8c1,1.2,1.5,3,1.5,5.2c0,2.2-0.5,4-1.5,5.2c-1,1.2-2.4,1.9-4.2,1.9c-0.9,0-1.7-0.2-2.4-0.5
	c-0.7-0.3-1.4-0.8-1.8-1.5h-0.1l-0.4,1.8h-1.5V334h2.1v4.7c0,1.1,0,2-0.1,2.8h0.1C190.7,340.2,192.1,339.5,194,339.5z M193.7,341.3
	c-1.4,0-2.4,0.4-3,1.2s-0.9,2.2-0.9,4.1c0,1.9,0.3,3.3,1,4.1c0.6,0.8,1.7,1.2,3.1,1.2c1.3,0,2.2-0.5,2.8-1.4c0.6-0.9,0.9-2.3,0.9-4
	c0-1.8-0.3-3.1-0.9-4S195,341.3,193.7,341.3z M201.4,339.8h2.2l3,7.8c0.7,1.8,1.1,3.1,1.2,3.8h0.1c0.1-0.4,0.3-1.1,0.7-2.2
	c0.3-1,1.5-4.2,3.4-9.5h2.2l-5.9,15.5c-0.6,1.5-1.3,2.6-2,3.3c-0.8,0.6-1.7,1-2.9,1c-0.6,0-1.3-0.1-1.9-0.2v-1.7
	c0.5,0.1,1,0.2,1.5,0.2c1.4,0,2.4-0.8,3-2.4l0.8-1.9L201.4,339.8z"/>
</svg>
